<svg fill="none" viewBox="0 0 378 214" xmlns="http://www.w3.org/2000/svg" xmlns:xlink="http://www.w3.org/1999/xlink"><clipPath id="a"><path d="m0 0h61v182h-61z" transform="translate(317 32)"/></clipPath><clipPath id="b"><path d="m0 0h294v182h-294z" transform="translate(15 32)"/></clipPath><clipPath id="c"><path d="m0 0h331v214h-331z"/></clipPath><g clip-path="url(#a)" opacity=".5"><g fill="#c8dbf4" opacity=".5"><path d="m565.573 264h-248.573v-214.8c0-9.485 7.715-17.2 17.2-17.2h216.937c7.961 0 14.436 6.477 14.436 14.436zm-244.663-3.912h240.754v-213.652c0-5.804-4.723-10.526-10.527-10.526h-216.937c-7.328 0-13.288 5.962-13.288 13.288v210.89z" opacity=".5"/><path d="m563.618 77.035h-244.663v4.348h244.663zm0 35.012h-244.663v4.348h244.663zm0 35.012h-244.663v4.348h244.663zm0 35.137h-244.663v4.349h244.663z" opacity=".5"/></g><g opacity=".5"><path d="m372.32 182.196h6.111v-22.736h-6.111zm-6.718 0h5.294v-24.711h-5.294z" fill="#c8dbf4" opacity=".5"/><path d="m357.334 181.786 5.255.643 2.998-24.529-5.254-.642z" fill="#d2e3fc" opacity=".5"/><path d="m327.563 182.196h24.981v-4.446h-24.981z" fill="#95c0f4" opacity=".5"/><path d="m324.509 177.752h24.981v-3.058h-24.981z" fill="#b7d3f3" opacity=".5"/><path d="m326.964 174.692h23.952v-3.058h-23.952z" fill="#d2e3fc" opacity=".5"/><path d="m326.383 171.636h21.63v-2.336h-21.63z" fill="#c8dbf4" opacity=".5"/></g><g opacity=".5"><path d="m330.619 54.397h-6.11v22.736h6.11zm6.718-1.974h-5.293v24.71h5.293z" fill="#c8dbf4" opacity=".5"/><path d="m342.591 52.195-5.255.642 2.999 24.528 5.254-.642z" fill="#d2e3fc" opacity=".5"/><path d="m379.635 52.423h-4.258v24.613h4.258z" fill="#c1d9f4" opacity=".5"/><path d="m374.489 50.392h-5.381v26.643h5.381z" fill="#e4eef9" opacity=".5"/><path d="m367.447 55.553h-5.382v21.482h5.382z" fill="#c8dbf4" opacity=".5"/><path d="m361.316 54.397h-5.381v22.638h5.381z" fill="#d2e3fc" opacity=".5"/><path d="m341.321 85.403h-5.382v26.644h5.382zm5.354-.231-5.342.654 3.238 26.446 5.342-.654z" fill="#e4eef9" opacity=".5"/><path d="m334.278 90.564h-5.381v21.483h5.381z" fill="#c8dbf4" opacity=".5"/><path d="m328.148 89.409h-5.382v22.638h5.382z" fill="#d2e3fc" opacity=".5"/><path d="m381.87 125.586h-5.382v21.483h5.382z" fill="#c8dbf4" opacity=".5"/><path d="m375.739 124.431h-5.382v22.638h5.382z" fill="#d2e3fc" opacity=".5"/></g></g><g clip-path="url(#b)" opacity=".5"><g fill="#c8dbf4" opacity=".5"><path d="m263.573 264h-248.573v-214.8c0-9.485 7.715-17.2 17.2-17.2h216.937c7.961 0 14.436 6.477 14.436 14.436zm-244.663-3.912h240.754v-213.652c0-5.804-4.723-10.526-10.527-10.526h-216.937c-7.328 0-13.289 5.962-13.289 13.288v210.89h-.002z" opacity=".5"/><path d="m261.618 77.035h-244.663v4.348h244.663zm0 35.012h-244.663v4.348h244.663zm0 35.012h-244.663v4.348h244.663zm0 35.137h-244.663v4.349h244.663z" opacity=".5"/></g><g opacity=".5"><path d="m70.32 182.196h6.11v-22.736h-6.11zm-6.718 0h5.294v-24.711h-5.294z" fill="#c8dbf4" opacity=".5"/><path d="m55.334 181.786 5.255.643 2.998-24.529-5.254-.642z" fill="#d2e3fc" opacity=".5"/><path d="m241.033 182.196h6.109v-22.736h-6.109zm-6.719 0h5.293v-24.711h-5.293z" fill="#c8dbf4" opacity=".5"/><path d="m226.044 181.802 5.254.642 2.999-24.528-5.255-.642z" fill="#d2e3fc" opacity=".5"/><path d="m25.563 182.196h24.98v-4.446h-24.98z" fill="#95c0f4" opacity=".5"/><path d="m22.509 177.752h24.981v-3.058h-24.981z" fill="#b7d3f3" opacity=".5"/><path d="m24.964 174.692h23.952v-3.058h-23.952z" fill="#d2e3fc" opacity=".5"/><path d="m24.383 171.636h21.63v-2.336h-21.63z" fill="#c8dbf4" opacity=".5"/><path d="m145.474 182.196h24.981v-4.446h-24.981z" fill="#d2e3fc" opacity=".5"/><path d="m142.42 177.752h24.981v-3.058h-24.981z" fill="#b7d3f3" opacity=".5"/><path d="m144.876 174.692h23.952v-3.058h-23.952z" fill="#d2e3fc" opacity=".5"/><path d="m144.297 171.636h21.63v-2.336h-21.63z" fill="#c8dbf4" opacity=".5"/><path d="m141.597 169.301h24.981v-3.059h-24.981z" fill="#b7d3f3" opacity=".5"/><path d="m144.053 166.244h23.951v-3.058h-23.951z" fill="#d2e3fc" opacity=".5"/><path d="m143.473 163.184h21.631v-2.336h-21.631z" fill="#c8dbf4" opacity=".5"/><path d="m126.748 182.099h4.258v-24.613h-4.258zm52.368 0h4.258v-25.741h-4.258zm12.9 0h4.258v-24.613h-4.258z" fill="#c1d9f4" opacity=".5"/><path d="m121.364 182.099h5.382v-26.644h-5.382zm75.798 0h5.381v-26.644h-5.381z" fill="#e4eef9" opacity=".5"/><path d="m115.985 182.099h5.381v-25.374h-5.381zm55.254-.007 5.301-.925-4.95-28.364-5.301.925z" fill="#b7d3f3" opacity=".5"/><path d="m110.601 182.101h5.381v-21.483h-5.381zm93.602 0h5.382v-21.483h-5.382z" fill="#c8dbf4" opacity=".5"/><path d="m105.219 182.099h5.382v-22.638h-5.382z" fill="#95c0f4" opacity=".5"/><path d="m98.977 182.099h5.381v-22.638h-5.381zm111.355 0h5.381v-22.638h-5.381z" fill="#d2e3fc" opacity=".5"/><path d="m92.59 182.099h5.381v-24.613h-5.381zm93.496 0h5.382v-24.613h-5.382z" fill="#afcdfb" opacity=".5"/></g><g opacity=".5"><path d="m199.331 54.397h-6.111v22.736h6.111zm6.717-1.974h-5.294v24.71h5.294z" fill="#c8dbf4" opacity=".5"/><path d="m211.304 52.21-5.254.642 2.999 24.528 5.254-.642-2.999-24.529z" fill="#d2e3fc" opacity=".5"/><path d="m101.01 89.313h-6.111v22.736h6.111v-22.737zm6.717-1.975h-5.294v24.711h5.294z" fill="#c8dbf4" opacity=".5"/><path d="m112.985 87.1-5.254.643 3.003 24.528 5.254-.643z" fill="#d2e3fc" opacity=".5"/><path d="m28.62 54.397h-6.111v22.736h6.11v-22.736zm6.717-1.974h-5.294v24.71h5.294z" fill="#c8dbf4" opacity=".5"/><path d="m40.59 52.195-5.254.642 2.999 24.528 5.254-.642-2.998-24.528z" fill="#d2e3fc" opacity=".5"/><path d="m244.086 72.688h-24.981v4.446h24.981v-4.447z" fill="#95c0f4" opacity=".5"/><path d="m247.142 69.629h-24.981v3.058h24.981v-3.057z" fill="#b7d3f3" opacity=".5"/><path d="m244.687 66.572h-23.952v3.059h23.952z" fill="#d2e3fc" opacity=".5"/><path d="m245.265 64.237h-21.63v2.336h21.63v-2.335z" fill="#c8dbf4" opacity=".5"/><path d="m124.174 72.688h-24.981v4.446h24.981v-4.447z" fill="#d2e3fc" opacity=".5"/><path d="m127.23 69.629h-24.981v3.058h24.981v-3.057z" fill="#b7d3f3" opacity=".5"/><path d="m124.775 66.572h-23.952v3.059h23.952z" fill="#d2e3fc" opacity=".5"/><path d="m125.354 64.237h-21.631v2.336h21.631v-2.335z" fill="#c8dbf4" opacity=".5"/><path d="m128.052 61.179h-24.981v3.058h24.981z" fill="#b7d3f3" opacity=".5"/><path d="m125.598 58.12h-23.952v3.058h23.952z" fill="#d2e3fc" opacity=".5"/><path d="m126.177 55.785h-21.631v2.336h21.631z" fill="#c8dbf4" opacity=".5"/><path d="m142.902 52.423h-4.258v24.613h4.258zm-52.367-1.128h-4.258v25.74h4.258zm-12.9 1.128h-4.258v24.613h4.258z" fill="#c1d9f4" opacity=".5"/><path d="m148.284 50.392h-5.381v26.643h5.381zm-75.794 0h-5.382v26.643h5.381v-26.643z" fill="#e4eef9" opacity=".5"/><path d="m153.666 51.662h-5.381v25.374h5.381zm-50.301-2.993-5.301-.926-4.95 28.364 5.3.925z" fill="#b7d3f3" opacity=".5"/><path d="m202.369 107.601h-24.981v4.446h24.981z" fill="#d2e3fc" opacity=".5"/><path d="m205.424 104.542h-24.982v3.059h24.982z" fill="#b7d3f3" opacity=".5"/><path d="m202.968 101.484h-23.952v3.059h23.952z" fill="#d2e3fc" opacity=".5"/><path d="m203.549 99.149h-21.631v2.335h21.631z" fill="#c8dbf4" opacity=".5"/><path d="m206.246 96.093h-24.981v3.058h24.981z" fill="#b7d3f3" opacity=".5"/><path d="m203.791 93.034h-23.952v3.058h23.952z" fill="#d2e3fc" opacity=".5"/><path d="m204.37 90.698h-21.631v2.336h21.631z" fill="#c8dbf4" opacity=".5"/><path d="m181.563 83.58-5.302-.926-4.95 28.364 5.302.926z" fill="#b7d3f3" opacity=".5"/><path d="m159.048 55.553h-5.382v21.482h5.382zm-93.601 0h-5.382v21.482h5.382z" fill="#c8dbf4" opacity=".5"/><path d="m164.431 54.397h-5.381v22.638h5.381z" fill="#95c0f4" opacity=".5"/><path d="m170.674 54.397h-5.382v22.638h5.382zm-111.358 0h-5.381v22.638h5.381z" fill="#d2e3fc" opacity=".5"/><path d="m162.727 85.403h-5.382v26.644h5.382z" fill="#e4eef9" opacity=".5"/><path d="m155.685 90.564h-5.381v21.483h5.381z" fill="#c8dbf4" opacity=".5"/><path d="m149.554 89.409h-5.382v22.638h5.382zm-17.987 0h-5.382v22.638h5.382zm-7.511 0h-5.381v22.638h5.381z" fill="#d2e3fc" opacity=".5"/><path d="m39.32 85.403h-5.38v26.644h5.382v-26.644zm5.355-.231-5.342.654 3.238 26.446 5.342-.654z" fill="#e4eef9" opacity=".5"/><path d="m32.278 90.564h-5.381v21.483h5.381z" fill="#c8dbf4" opacity=".5"/><path d="m26.148 89.409h-5.382v22.638h5.382z" fill="#d2e3fc" opacity=".5"/><path d="m177.061 52.423h-5.381v24.613h5.381z" fill="#afcdfb" opacity=".5"/><path d="m118.57 122.443h-4.258v24.613h4.258z" fill="#c1d9f4" opacity=".5"/><path d="m123.954 120.415h-5.381v26.644h5.381z" fill="#e4eef9" opacity=".5"/><path d="m129.336 121.685h-5.382v25.374h5.382z" fill="#b7d3f3" opacity=".5"/><path d="m134.717 125.576h-5.381v21.483h5.381z" fill="#c8dbf4" opacity=".5"/><path d="m140.099 124.419h-5.382v22.638h5.382z" fill="#95c0f4" opacity=".5"/><path d="m146.342 124.419h-5.382v22.638h5.382z" fill="#d2e3fc" opacity=".5"/><path d="m152.731 122.443h-5.382v24.613h5.382zm64.415-35.01h-5.382v24.612h5.382zm5.862 0h-5.381v24.612h5.381zm-139.445-35.01h-5.383v24.613h5.382v-24.613z" fill="#afcdfb" opacity=".5"/><path d="m229.954 142.72h-24.982v4.446h24.982z" fill="#d2e3fc" opacity=".5"/><path d="m233.008 139.662h-24.981v3.058h24.981z" fill="#b7d3f3" opacity=".5"/><path d="m230.553 136.606h-23.952v3.058h23.952z" fill="#d2e3fc" opacity=".5"/><path d="m231.133 134.27h-21.63v2.336h21.63z" fill="#c8dbf4" opacity=".5"/><path d="m233.831 131.212h-24.981v3.058h24.981z" fill="#b7d3f3" opacity=".5"/><path d="m231.376 128.153h-23.952v3.059h23.952z" fill="#d2e3fc" opacity=".5"/><path d="m231.954 125.818h-21.63v2.336h21.63z" fill="#c8dbf4" opacity=".5"/><path d="m196.314 121.328h-4.258v25.741h4.258zm-12.9 1.128h-4.258v24.613h4.258z" fill="#c1d9f4" opacity=".5"/><path d="m178.267 120.425h-5.382v26.644h5.382z" fill="#e4eef9" opacity=".5"/><path d="m209.148 118.699-5.301-.926-4.951 28.364 5.302.926z" fill="#b7d3f3" opacity=".5"/><path d="m171.225 125.586h-5.382v21.483h5.382z" fill="#c8dbf4" opacity=".5"/><path d="m165.096 124.431h-5.382v22.638h5.382z" fill="#d2e3fc" opacity=".5"/><path d="m108.47 120.425h-5.382v26.644h5.382z" fill="#e4eef9" opacity=".5"/><path d="m101.428 125.586h-5.381v21.483h5.381z" fill="#c8dbf4" opacity=".5"/><path d="m95.297 124.431h-5.381v22.638h5.381z" fill="#d2e3fc" opacity=".5"/><path d="m86.912 120.425h-5.382v26.644h5.382z" fill="#e4eef9" opacity=".5"/><path d="m79.87 125.586h-5.382v21.483h5.382z" fill="#c8dbf4" opacity=".5"/><path d="m73.739 124.431h-5.382v22.638h5.382z" fill="#d2e3fc" opacity=".5"/><path d="m189.342 122.456h-5.381v24.613h5.381z" fill="#afcdfb" opacity=".5"/></g></g><g clip-path="url(#c)"><path d="m298.836 138.451s-2.41-24.406-.898-39.166c1.503-14.76 2.704-19.285 2.704-19.285s6.011 34.044 5.718 44.894c-.302 10.85-.302 26.509-.302 28.014s-4.812 6.324-4.812 6.324l-1.805-15.365-.605-5.425zm-5.113 46.694s-8.12-14.164-10.228-27.115-4.509-45.49-2.703-57.542c1.805-12.052 1.502-11.143 1.502-11.143s3.309 26.508 6.315 41.277c3.006 14.76 8.422 55.431 8.422 55.431l-3.308-.899z" fill="#639a67"/><path d="m318.384 184.292s-7.023 2.518-16.646 2.263c-9.623-.256-16.646-2.263-16.646-2.263s15.238-3.673 33.292 0z" fill="#aaafb5"/><path d="m306.994 187.899s11.693-30.598 12.591-42.129c.898-11.541 1.805-14.021 0-27.247-1.806-13.217-3.006-19.238-3.006-19.238s-4.216 18.338-6.315 29.955c-2.108 11.616-4.083 46.484-4.802 51.767-.718 5.283-.907 6.892-.907 6.892s.397 1.42 2.448 0z" fill="#c2c57f"/><path d="m302.948 188.23s2.505-27.787.699-34.414c-1.805-6.627-2.107-5.122-2.41-15.668-.302-10.547-.898-24.104-.898-24.104s-4.216 14.163-5.114 26.215-.898 15.971.303 23.195c1.2 7.233 3.308 14.163 3.611 18.679.302 4.516 1.805 6.324 1.805 6.324s1.607 1.042 2.004-.227z" fill="#b5b576"/><path d="m306.994 187.899s4.168-24.748 6.579-30.778c2.41-6.021 6.314-24.407 6.616-31.034.303-6.627 1.806-18.376 1.806-18.376s4.509 3.01 4.216 16.568c-.293 13.557-1.201 11.446-3.309 24.406-2.108 12.952-3.308 16.871-6.314 22.599s-7.817 17.174-7.817 17.174-.218-.209-1.758-.559z" fill="#6fa571"/><path d="m294.016 186.649s-5.416-14.163-7.222-32.236c-1.805-18.073-1.503-25.003-.898-29.529.605-4.515 1.806-17.476 3.611-22.295 0 0 1.806 16.265 3.006 23.498s4.216 15.365 4.509 32.539c.302 17.174 2.703 29.822 2.703 29.822s-4.509 1.202-5.719-1.808z" fill="#c2c57f"/><path d="m300.935 188.458-3.309-.606s-6.011-6.93-6.011-15.366c0-8.435-1.806-9.94-1.503-20.184.302-10.244-2.411-22.892-2.411-22.892s8.725 10.85 9.925 20.487c1.201 9.638 3.914 22.296 3.914 28.317s-.605 10.244-.605 10.244z" fill="#6fa571"/><path d="m302.948 188.23s-3.006-21.32-1.002-32.994c2.004-11.663 4.415-19.095 4.613-26.934.199-7.83 3.11-15.063 3.11-15.063s4.811 11.38 2.41 24.473c-2.41 13.084-7.524 49.335-7.524 50.187s-1.607.321-1.607.321z" fill="#b5b576"/><path d="m313.573 232.992s-6.012 1.202-11.835 1.202-11.834-1.202-11.834-1.202l-4.812-48.7s7.023 2.007 16.646 2.263c9.623.255 16.646-2.263 16.646-2.263z" fill="#e2e9f2"/><path d="m283.873 205.603s15.596 3.787 22.213 2.367c6.617-1.421 4.726.946 9.925-2.367 5.199-3.314 5.672-8.048 5.672-8.048l-1.106-8.52s-8.195 1.42-14.34 1.893c-6.144.474-22.998-2.366-22.998-2.366z" fill="#fcfaef"/><path d="m285.14 195.661v5.368s4.887 2.367 13.545 1.894c8.668-.474 17.799 0 19.217-2.528l.312-5.841s-13.233 5.519-33.084 1.107z" fill="#c56d51"/><path d="m227.981 236.046-9.024-51.066a1.186 1.186 0 0 0 -1.361-.952 1.168 1.168 0 0 0 -.95 1.363l8.38 47.447-11.934-11.836-3.203-35.289a1.188 1.188 0 0 0 -1.273-1.07 1.18 1.18 0 0 0 -1.068 1.275l2.969 32.784a.948.948 0 0 0 -.292-.059h-46.92c-.102 0-.19.03-.278.059l2.969-32.784a1.179 1.179 0 0 0 -1.067-1.275 1.18 1.18 0 0 0 -1.273 1.07l-3.203 35.289-11.935 11.836 8.381-47.447a1.168 1.168 0 0 0 -.951-1.363 1.166 1.166 0 0 0 -1.36.952l-17.536 99.261a1.167 1.167 0 0 0 .95 1.362c.073 0 .132.015.205.015.556 0 1.053-.396 1.155-.967l8.337-47.198h11.262l-1.228 13.491a1.179 1.179 0 0 0 1.067 1.275h.103c.599 0 1.111-.455 1.17-1.07l1.243-13.696h50.883l1.244 13.696c.058.615.57 1.07 1.17 1.07h.102a1.18 1.18 0 0 0 1.068-1.275l-1.229-13.491h11.262l8.337 47.198c.102.571.6.967 1.155.967.074 0 .132 0 .205-.015a1.167 1.167 0 0 0 .951-1.362l-8.512-48.195zm-78.41-.952 10.56-10.474-.95 10.474zm11.964 0 1.185-13.037 1.068-1.07h45.954l1.068 1.07 1.185 13.037zm52.814 0-.95-10.474 10.56 10.474z" fill="#383838"/><path d="m140.927 107.957s-10.648 9.507-12.505 12.056-1.623 10.21 3.7 11.822c5.324 1.626 13.895-6.49 15.752-8.35 1.858-1.861 5.558-5.098 5.558-5.098l-3.013-10.899z" fill="#eae6d6"/><path d="m220.55 142.953c-5.104-11.616-6.552-42.393-6.552-42.393l-26.751-1.758-26.751 1.758s-1.447 30.777-6.552 42.393c-5.104 11.617-11.145 11.47-11.145 24.522 0 10.753 3.554 18.326 8.147 23.424 7.708 8.555 36.316 10.21 36.316 10.21s28.608-1.64 36.316-10.21c4.593-5.098 8.147-12.671 8.147-23.424 0-13.066-6.041-12.905-11.145-24.522z" fill="#aaa87c"/><path d="m213.062 139.115s5.207 8.658 7.357 14.839c2.165 6.182 4.008 21.651-5.251 26.588-9.258 4.951-32.718 2.783-37.661 2.476-4.944-.308-14.977-4.644-18.517-17.008-3.554-12.363 3.086-20.098 3.086-20.098l11.73-6.797z" fill="#604934"/><path d="m184.922 161.425s1.857 1.494 2.779 12.935c.921 11.441 7.093 39.654 8.029 53.688a1540.86 1540.86 0 0 0 1.858 25.167s8.951 3.09 15.123-.308c0 0-.614-21.651.307-31.539.922-9.888.307-30.616.307-30.616s7.416-11.133 7.723-17.93-36.126-11.382-36.126-11.382z" fill="#5f4b34"/><path d="m205.588 254.899c-4.241 0-7.898-1.23-8.132-1.318a.397.397 0 0 1 -.263-.337c0-.117-.936-11.294-1.858-25.167-.497-7.617-2.515-19.233-4.475-30.469-1.609-9.244-3.13-17.974-3.554-23.204 0-.161-.161-3.691 1.594-5.449.687-.689 1.565-1.026 2.618-.967.22 0 .38.19.366.41 0 .22-.19.366-.41.381-.833-.044-1.492.205-2.033.732-1.506 1.524-1.36 4.82-1.36 4.849.424 5.186 1.931 13.902 3.54 23.131 1.959 11.25 3.978 22.896 4.49 30.557a1597.99 1597.99 0 0 0 1.828 24.903c1.433.44 8.98 2.549 14.363-.249-.059-2.417-.556-22.105.321-31.348.907-9.756.307-30.353.307-30.558 0-.058-.087-5.537-.292-8.057a.394.394 0 0 1 .366-.424c.248-.044.409.146.424.366.19 2.534.292 8.042.292 8.101 0 .205.6 20.845-.307 30.66-.921 9.756-.307 31.275-.307 31.495a.393.393 0 0 1 -.205.351c-2.267 1.26-4.885 1.655-7.313 1.655z" fill="#513e2d"/><path d="m210.4 173.35s13.894 4.409 16.205 6.723c2.311 2.315 8.571 3.018 8.571 3.018l4.168-1.626-3.013-9.741s-19.452-7.427-20.608-8.116c-1.155-.703-5.323 9.742-5.323 9.742z" fill="#f7c09a"/><path d="m169.638 47.427s-3.013 10.9-5.09 13.448c-2.077 2.549-4.402 9.038.468 10.43 4.856 1.392 28.023 7.647 41.684.923s6.479-11.368 4.402-16.231c-2.076-4.863-3.466-16.465-4.168-18.545-.687-2.08-6.026-8.82-10.194-9.976-4.169-1.158-27.087 19.014-27.087 19.014v.923z" fill="#383838"/><path d="m176.585 67.366s0 7.88-1.857 8.818c-1.858.938-9.259 3.472-13.895 7.881-4.637 4.41-13.427 19.483-13.427 19.483l6.026 25.05 29.179 13.916s20.842 2.549 32.191-.469c0 0 2.077-1.157 1.858-3.017-.234-1.861-2.545-11.602-2.545-15.543 0-3.94.922-9.976.922-9.976l13.894 5.567 4.168-.469s-11.115-23.423-13.66-28.755c-2.545-5.333-4.168-9.039-10.648-10.9-6.479-1.86-12.505-3.251-13.426-3.705-.922-.469-3.013-6.958-3.013-7.647 0-.688-15.752-.234-15.752-.234z" fill="#eae6d6"/><path d="m173.894 97.395-18.984-16.084-1.58 5.683zm27.701-6.826-.921-6.739-26.166 13.462v6.255l9.96-1.86z" fill="#fff"/><path d="m185.566 78.44h-.425c-.219 0-.38-.191-.38-.411s.19-.366.41-.381c.073 0 7.049.19 9.901-2.666a.407.407 0 0 1 .556 0c.161.146.146.395 0 .557-2.706 2.71-8.439 2.9-10.062 2.9z" fill="#b0ada1"/><path d="m210.634 175.898s-42.137-16.231-49.318-19.483a50.299 50.299 0 0 0 -2.999-1.245c-7.152-2.813-16.542-5.86-17.156-13.14-.687-8.35 2.077-19.718 12.505-19.937 10.414-.235 27.087 14.604 34.035 20.171 3.203 2.578 10.033 7.471 16.439 11.997 7.46 5.274 14.363 10.035 14.363 10.035s-1.858 10.43-7.869 11.602z" fill="#5f4b34"/><path d="m210.635 176.294s-.088 0-.146-.029c-.424-.162-42.24-16.275-49.333-19.483a54.99 54.99 0 0 0 -2.969-1.231.383.383 0 0 1 -.22-.513c.073-.205.307-.293.512-.219 1.229.483 2.194.879 3.013 1.26 6.903 3.12 46.73 18.486 49.187 19.424.877-.235 6.377-2.036 7.43-11.001-1.17-.806-7.474-5.171-14.173-9.903-8.219-5.801-13.748-9.844-16.454-12.012-.175-.132-.19-.381-.058-.557a.407.407 0 0 1 .556-.058c2.691 2.153 8.219 6.196 16.424 11.982 7.372 5.215 14.29 9.976 14.348 10.035.117.088.191.22.161.366-1.111 10.328-8.117 11.924-8.176 11.939z" fill="#513e2d"/><path d="m174.611 97.19-27.657-16.143v36.402l27.789 14.605-.132-34.879z" fill="#b75d46"/><path d="m206.92 85.69-32.309 11.573.132 34.806 32.177-12.979z" fill="#c56d51"/><path d="m234.24 171.035s4.168 9.507-5.09 10.665l-1.623-.923s-.922 1.86.921 3.017c1.858 1.158 10.882 4.644 14.816 7.427 3.935 2.784 9.258 9.507 12.505 9.273s9.961-4.175 10.195-8.819c.234-4.643-.688-7.427-2.311-8.349-1.624-.923-13.193-5.333-18.297-8.116-5.09-2.783-9.726-3.94-11.116-4.175z" fill="#aaafb5"/><path d="m168.029 64.435c1.745 0 3.16-2.25 3.16-5.025s-1.415-5.024-3.16-5.024c-1.744 0-3.159 2.25-3.159 5.024 0 2.775 1.415 5.025 3.159 5.025z" fill="#fcfaef"/><path d="m169.491 45.114s.849 7.06.776 9.126c-.161 4.014 1.389 8.189 3.554 11.133 2.164 2.944 5.09 5.098 7.093 5.566 2.004.47 5.558.777 8.03-.468 2.472-1.23 8.483-7.427 9.258-10.826.775-3.398 2.004-3.252 2.004-3.252s3.086-2.168 4.636-3.09c1.551-.923 1.858-2.315 1.083-4.014-.776-1.7-.6-1.846-1.682-1.7-1.083.161-4.023 2.007-4.023 2.007l4.169-6.65-3.554-4.79-19.453-1.231-8.029 2.007z" fill="#f7c09a"/><path d="m166.874 35.064s-2.165 4.175.775 7.88c2.94 3.707 7.723 4.337 9.419 5.099 1.697.776 5.251.776 8.176.307 2.94-.469 8.644-5.874 8.644-5.874s-4.007 4.483-2.311 5.098c1.697.615 5.719-1.553 8.03-4.175 0 0-1.083 3.252-1.083 4.951 0 1.7-.468 2.783.468 2.783.937 0 2.311-2.006 4.008-3.09s2.472-2.623 2.618-3.399c.161-.776-1.55-7.881-1.55-7.881l-8.03-9.273s-.307-2.314-6.786-3.252c-6.48-.923-11.262.923-14.509 4.014-3.247 3.09-7.094 4.79-7.869 6.797z" fill="#383838"/><path d="m170.179 50.68s-1.623-3.633-3.466-3.018c-1.857.615-2.472 2.402-1.463 4.175 1.01 1.772 2.618 2.622 3.086 3.398.469.777 2.545.777 2.545.777l-.687-5.332z" fill="#f7c09a"/><path d="m169.112 53.067s-.688-3.164-1.624-3.164-1.389.616-.848 1.465c.541.85 1.623 2.622 2.004 2.71.38.073.541-.85.468-1.01zm31.489.161c-.117-.366 2.077-3.56 3.013-3.09.921.468 1.155 1.699-.161 2.475-1.317.777-2.399 2.08-2.852.615z" fill="#b99073"/><path d="m138.924 109.276s3.7 4.014 6.479 4.014 9.566-6.182 11.423-7.574c1.858-1.391 1.082-2.168 1.082-3.559 0-1.392.161-2.315-1.389-2.623-1.55-.307-8.951-.307-9.565-.16v-7.882s-2.311.777-2.779 2.476c-.468 1.7-.922 7.427-2.311 9.741-1.39 2.315-3.086 4.952-2.94 5.567zm73.553-3.18s-3.583-4.175-3.466-6.84c.117-2.667-.468-7.193-1.975-7.193l-.234 5.332s-5.207-.235-7.986-.235-7.415-1.391-8.687 0c-1.273 1.392-2.311 3.37-.234 6.153 2.076 2.783 9.726 6.035 12.388 6.372 2.662.352 4.855 0 6.596.806 1.74.806 3.583-4.409 3.583-4.409z" fill="#f7c09a"/><path d="m212.476 104.705s-4.051 5.684-4.519 6.724c0 0 2.545 3.721 6.362 8.657a180.271 180.271 0 0 0 8.001 9.669c6.83 7.646 10.413 8.584 14.816 5.918 4.402-2.666 6.362-7.764 2.31-12.877-1.155-1.464-3.861-3.574-7.137-5.83-8.161-5.64-19.833-12.261-19.833-12.261z" fill="#eae6d6"/><path d="m214.32 120.482a.41.41 0 0 1 -.307-.146c-3.774-4.878-6.348-8.628-6.377-8.672a.394.394 0 0 1 -.029-.381c.468-1.069 4.387-6.563 4.548-6.797a.408.408 0 0 1 .512-.117c.117.058 11.789 6.694 19.862 12.275.176.118.22.367.103.542a.396.396 0 0 1 -.542.103c-7.313-5.069-17.595-10.987-19.496-12.071-1.155 1.641-3.583 5.098-4.168 6.182.57.821 2.939 4.204 6.216 8.438a.398.398 0 0 1 -.073.557.394.394 0 0 1 -.235.087z" fill="#b0ada1"/><path d="m152.511 106.258a.41.41 0 0 1 -.351-.22.423.423 0 0 1 .176-.527c1.229-.601 4.578-2.286 5.309-2.945a.394.394 0 1 1 .527.586c-.966.879-5.309 2.988-5.5 3.076a.378.378 0 0 1 -.175.044zm-.702-2.389a.408.408 0 0 1 -.38-.279.39.39 0 0 1 .263-.483c.044 0 4.607-1.318 6.026-2.065a.386.386 0 0 1 .526.161c.103.19.03.425-.16.527-1.492.776-5.982 2.066-6.173 2.124-.029 0-.073.015-.102.015z" fill="#e08d63"/><path d="m150.961 101.701a.398.398 0 0 1 -.395-.366c0-.22.161-.396.366-.41 1.579-.088 5.85-.366 6.713-.601.205-.073.424.059.483.264a.392.392 0 0 1 -.264.483c-1.111.323-6.64.615-6.874.63zm44.726 3.399s-.131-.015-.19-.044c-.146-.073-3.525-1.89-5.031-3.047-1.521-1.172-2.018-1.787-2.033-1.802-.132-.161-.102-.41.059-.557.16-.131.409-.102.555.059 0 0 .468.571 1.902 1.67 1.462 1.128 4.885 2.959 4.929 2.974a.388.388 0 0 1 -.191.732zm1.858-1.627s-.103 0-.147-.029c-.175-.073-4.343-1.773-5.982-2.945-1.608-1.157-2.31-1.728-2.34-1.757a.395.395 0 0 1 .512-.601s.702.586 2.296 1.728c1.565 1.114 5.778 2.842 5.822 2.857a.401.401 0 0 1 .219.513.4.4 0 0 1 -.366.249z" fill="#e08d63"/><path d="m198.247 100.69h-.074c-.219-.043-5.397-1.069-6.713-1.787-1.126-.615-1.565-.644-1.565-.644a.39.39 0 0 1 -.365-.41c0-.206.175-.381.38-.381.088 0 .629.029 1.93.747.995.542 5.017 1.406 6.48 1.7a.383.383 0 0 1 .307.453.402.402 0 0 1 -.38.322z" fill="#e08d63"/><path d="m202.985 59.88c0 2.769-1.419 5.025-3.159 5.025s-3.159-2.256-3.159-5.025 1.419-5.025 3.159-5.025 3.159 2.256 3.159 5.025z" fill="#fcfaef"/><path d="m126.821 193.011c0-3.361-17.612-6.082-39.322-6.082s-39.322 2.721-39.322 6.082 17.064 6.001 38.306 6.081v28.535l-22.178 43.419a.859.859 0 1 0 1.53.777l20.66-40.446v29.906c0 .469.388.857.856.857a.862.862 0 0 0 .856-.857v-29.906l20.659 40.446a.86.86 0 0 0 1.153.378.87.87 0 0 0 .377-1.155l-22.178-43.419v-28.535c21.402-.057 38.637-2.755 38.637-6.081z" fill="#383838"/><g fill="#639a67"><path d="m70.789 152.93h-.035a.427.427 0 0 1 -.388-.469c.697-8.185-1.769-15.319-5.695-23.493-4.144-8.631-16.688-22.064-16.813-22.201a.432.432 0 0 1 .022-.606.43.43 0 0 1 .605.023c.126.137 12.761 13.673 16.962 22.418 3.983 8.3 6.495 15.559 5.775 23.939a.423.423 0 0 1 -.422.389z"/><path d="m51.91 111.087a.437.437 0 0 1 -.423-.343c-1.838-8.859 2.842-20.509 3.036-21a.443.443 0 0 1 .56-.24c.216.091.32.343.24.56-.046.114-4.772 11.901-2.991 20.497a.428.428 0 0 1 -.331.503h-.092v.023zm15.831 24.214a.428.428 0 0 1 -.422-.365c-1.895-11.993 18.924-22.979 19.815-23.436a.446.446 0 0 1 .582.183c.114.206.023.468-.183.583-.217.114-21.162 11.158-19.37 22.544a.435.435 0 0 1 -.353.491z"/><path d="m69.819 127.036a.45.45 0 0 1 -.206-.046.432.432 0 0 1 -.171-.583c.24-.446.548-1.143.936-2.023 1.278-2.916 3.413-7.786 6.78-11.604 4.246-4.813 8.252-11.363 8.287-11.432a.426.426 0 0 1 .593-.137.428.428 0 0 1 .137.594c-.046.069-4.086 6.677-8.378 11.558-3.276 3.716-5.388 8.517-6.643 11.386-.4.904-.708 1.612-.959 2.081a.428.428 0 0 1 -.376.229z"/><path d="m72.41 121.4a.514.514 0 0 1 -.183-.035.425.425 0 0 1 -.205-.571c1.598-3.487 1.38-10.049 1.38-10.118 0-.24.172-.434.412-.446.25 0 .433.172.445.412 0 .274.228 6.836-1.461 10.506a.422.422 0 0 1 -.388.252zm5.067-7.911a.39.39 0 0 1 -.25-.08.424.424 0 0 1 -.092-.595c2.636-3.555 2.853-19.366 2.853-19.526 0-.24.183-.457.434-.423.24 0 .422.195.422.434 0 .664-.228 16.246-3.013 20.03a.422.422 0 0 1 -.342.171zm-6.7 33.759a.418.418 0 0 1 -.422-.401c-.068-1.108-2.5-3.041-4.018-4.001a.438.438 0 0 1 -.137-.594.436.436 0 0 1 .594-.137c.434.274 4.292 2.778 4.406 4.675a.433.433 0 0 1 -.4.458zm-.399-3.008a.425.425 0 0 1 -.388-.617c.08-.149 1.849-3.635 3.572-5.019a.424.424 0 0 1 .605.069.435.435 0 0 1 -.068.606c-1.587 1.28-3.333 4.71-3.345 4.744a.44.44 0 0 1 -.376.24zm-1.701-6.39a.428.428 0 0 1 -.41-.297c-.857-2.766-6.267-6.516-6.324-6.55a.438.438 0 0 1 -.114-.595c.137-.194.4-.24.593-.114.229.16 5.719 3.955 6.655 6.996a.43.43 0 0 1 -.286.538c-.045.011-.08.022-.125.022zm-4.44-10.22a.443.443 0 0 1 -.388-.24c-1.838-3.738-.297-11.352-.229-11.672a.429.429 0 0 1 .503-.332.43.43 0 0 1 .33.503c-.01.08-1.552 7.637.16 11.124a.43.43 0 0 1 -.194.571.355.355 0 0 1 -.182.046zm-3.573-55.137s-8.595 7.122-6.152 18.52c0 0 9.873-4.15 6.152-18.52zm-25.488 10.312s-2.83 18.017 14.2 24.979c0 0-1.028-20.246-14.2-24.98z"/><path d="m63.803 91.013s-8.332 12.118 0 26.122c0 0 6.689-10.14 0-26.122zm12.053-15.982s-4.154 12.313 4.509 20.27c0 0 5.285-8.77-4.509-20.27zm8.938 28.145s1.358-13.958 16.71-18.005c0 0-3.55 16.908-16.71 18.005zm-9.942-6.504s-6.917 8.277-1.016 15.216c0 0 5.422-4.23 1.016-15.216zm10.387 16.394s2.602-9.02 17.623-5.271c0 0-7.43 7.923-17.623 5.271zm-21.859 18.463s-3.218-14.576-21.195-19.652c0 0 7.716 17.148 21.196 19.652zm9.03 8.974s-.275-13.239 15.089-17.972c0 0-2.329 15.331-15.09 17.972zm-25.249-8.975s4.691 14.119 21.242 12.278c0 0-4.03-12.746-21.242-12.278z"/></g><path d="m80.32 172.615c-1.496-8.688-5.605-15.284-7.203-17.582v-3.533a2.219 2.219 0 0 0 -2.214-2.218 2.219 2.219 0 0 0 -2.215 2.218v3.567c-1.609 2.321-5.684 8.906-7.18 17.56-1.392 8.117-.947 17.399 2.729 17.399h13.355c3.686 0 4.131-9.282 2.728-17.399z" fill="#e0a38b"/><path d="m116.754 178.023v11.123l-26.949-.331-1.427-1.635.548-8.837s4.143-.697 4.28-.697 23.536.365 23.536.365z" fill="#efede4"/><path d="m118.945 190.827h-28.056c-2.808 0-5.09-2.024-5.09-4.516v-5.853c0-2.492 2.282-4.516 5.09-4.516h28.011c.548 0 .993.389.993.881v.491c0 .595-.548 1.086-1.222 1.086h-25.864c-1.632 0-2.945 1.178-2.945 2.618v4.584c0 1.441 1.324 2.618 2.945 2.618h25.922c.639 0 1.164.458 1.164 1.029v.743c0 .469-.423.846-.948.846z" fill="#aaafb5"/><path d="m120.715 169.209h-27.794v5.968h27.794z" fill="#eae6d6"/><path d="m122.392 175.759h-29.471a.565.565 0 0 1 -.57-.571v-5.968c0-.32.25-.571.57-.571h29.471c.32 0 .571.251.571.571s-.251.572-.571.572h-28.9v4.824h28.9c.32 0 .571.252.571.572s-.251.571-.571.571z" fill="#c56d51"/><path d="m120.212 163.756h-32.176v4.847h32.176z" fill="#205d67"/></g></svg>