<svg fill="none" xmlns="http://www.w3.org/2000/svg" viewBox="0 0 48 48"><rect width="48" height="48" rx="24" fill="#9898AD" fill-opacity=".07"/><path d="M24.25 34c1.367 0 2.46-1.094 2.46-2.5h-4.96c0 1.406 1.094 2.5 2.5 2.5Zm8.398-5.82c-.742-.82-2.187-2.032-2.187-6.055 0-3.008-2.11-5.43-5-6.055v-.82c0-.664-.547-1.25-1.211-1.25-.703 0-1.25.586-1.25 1.25v.82c-2.89.625-5 3.047-5 6.055 0 4.023-1.445 5.234-2.188 6.055-.234.234-.351.547-.312.82 0 .664.469 1.25 1.25 1.25h14.96c.782 0 1.25-.586 1.29-1.25 0-.273-.117-.586-.352-.82Z" fill="#9898AD"/><rect x="26.145" y="14" width="8" height="8" rx="4" fill="#FF504C"/></svg>