<svg fill="none" viewBox="0 0 61 61" xmlns="http://www.w3.org/2000/svg" xmlns:xlink="http://www.w3.org/1999/xlink"><clipPath id="a"><path d="m0 0h30.636v36.642h-30.636z" transform="translate(15.182 12.247)"/></clipPath><rect fill="#ffefde" height="61" rx="12" width="61"/><g clip-path="url(#a)"><path d="m36.226 39.104c-.95.459-1.264 2.806-2.317 3.046-1.01.23-2.29-1.7-3.374-1.74v5.375l-.035-.016 6.736 3.12v-9.86c-.387-.055-.74-.056-1.01.075z" fill="#eb5b41"/><path d="m30.535 40.41-.034-.002c-1.09 0-2.388 1.974-3.409 1.742-1.053-.24-1.366-2.587-2.317-3.046-.27-.13-.623-.13-1.01-.075v9.86l6.736-3.12.034.016v-5.376z" fill="#d44538"/><path d="m45.818 27.208c0-1.09-2.219-1.918-2.45-2.939-.24-1.054 1.395-2.76.936-3.711-.466-.967-2.823-.749-3.486-1.58-.666-.834.068-3.084-.767-3.75-.83-.663-2.858.55-3.825.084-.95-.458-1.263-2.806-2.317-3.046-1.02-.232-2.318 1.742-3.409 1.742-1.09 0-2.388-1.974-3.408-1.742-1.054.24-1.367 2.588-2.317 3.046-.967.467-2.996-.747-3.826-.084-.834.666-.1 2.916-.766 3.75-.663.831-3.02.613-3.486 1.58-.459.95 1.176 2.657.936 3.711-.232 1.021-2.45 1.848-2.45 2.94 0 1.09 2.218 1.918 2.45 2.938.24 1.055-1.395 2.76-.936 3.712.466.966 2.823.748 3.486 1.579.666.834-.068 3.084.766 3.75.598.478 1.819-.019 2.816-.159.386-.054.74-.055 1.01.075.95.459 1.263 2.807 2.317 3.046 1.02.232 2.318-1.742 3.408-1.742l.035.002c1.084.04 2.364 1.97 3.374 1.74 1.054-.24 1.367-2.587 2.317-3.046.27-.13.623-.13 1.01-.075.997.14 2.218.637 2.816.16.834-.667.1-2.917.766-3.751.663-.83 3.02-.613 3.486-1.58.459-.95-1.176-2.657-.936-3.71.232-1.022 2.45-1.849 2.45-2.94zm-2.414 6.217c-.244.505-1.04.664-1.802.842-.32-.057-.639-.122-.957-.19a12.235 12.235 0 0 1 -10.145 5.385c-6.765 0-12.25-5.486-12.25-12.254 0-3.859 1.785-7.3 4.571-9.546a37.17 37.17 0 0 1 -.455-1.839c.9.05 2.113.587 2.782.264.888-.428 1.18-2.623 2.166-2.847.953-.217 2.166 1.629 3.186 1.629s2.232-1.846 3.186-1.63c.985.225 1.278 2.42 2.166 2.848.904.436 2.8-.698 3.577-.078.78.622.093 2.726.716 3.506.62.776 2.823.572 3.259 1.476.428.89-1.1 2.484-.876 3.47.217.954 2.291 1.727 2.291 2.747s-2.074 1.793-2.29 2.747c-.225.986 1.303 2.58.875 3.47z" fill="#f9b342"/><path d="m44.82 27.21c0-1.02-2.075-1.794-2.292-2.748-.224-.985 1.305-2.58.876-3.47-.436-.903-2.64-.7-3.26-1.476-.622-.78.065-2.883-.715-3.506-.776-.62-2.673.515-3.576.08-.89-.43-1.182-2.625-2.167-2.849-.954-.216-2.166 1.63-3.186 1.63s-2.232-1.847-3.186-1.63c-.985.224-1.278 2.42-2.166 2.848-.669.323-1.882-.215-2.781-.264.136.616.287 1.23.455 1.838a12.194 12.194 0 0 1 7.678-2.707c6.765 0 12.25 5.486 12.25 12.254 0 2.545-.776 4.91-2.105 6.868.318.068.637.133.957.19.763-.177 1.558-.337 1.802-.841.429-.89-1.1-2.485-.875-3.47.216-.954 2.29-1.727 2.29-2.747z" fill="#fcc243"/><path d="m30.5 14.956a12.195 12.195 0 0 0 -7.678 2.707 12.23 12.23 0 0 0 -4.57 9.546c0 6.768 5.483 12.254 12.248 12.254 4.221 0 7.943-2.136 10.146-5.385a12.199 12.199 0 0 0 2.104-6.869c0-6.767-5.484-12.253-12.25-12.253zm0 24.073c-6.525 0-11.815-5.292-11.815-11.82 0-6.527 5.29-11.819 11.815-11.819 6.526 0 11.815 5.292 11.815 11.82 0 6.527-5.29 11.819-11.815 11.819z" fill="#f8ab1f"/><path d="m30.501 15.389c-6.525 0-11.815 5.291-11.815 11.819 0 6.527 5.29 11.819 11.815 11.819s11.815-5.292 11.815-11.82c0-6.527-5.29-11.818-11.815-11.818zm9.504 14.634a28.306 28.306 0 0 1 -.686-.111c-1.155 3.775-4.666 6.52-8.818 6.52-5.093 0-9.222-4.13-9.222-9.225a9.22 9.22 0 0 1 4.547-7.95c-.065-.318-.119-.64-.161-.968-.043-.328-.08-.656-.124-.983 1.456-.706 3.09-1.1 4.817-1.1 6.116 0 11.074 4.959 11.074 11.077a11.1 11.1 0 0 1 -.378 2.878c-.35-.04-.7-.086-1.049-.138z" fill="#fece44"/><path d="m30.357 16.207c-1.727 0-3.36.395-4.817 1.1.043.328.081.656.124.984.042.327.096.65.16.968a9.174 9.174 0 0 1 4.676-1.274c1.835 0 3.543.538 4.98 1.462.257-.306.429-.715.597-1.306.306 1.069.69 1.687 2.103 2.104-.531.07-.901.217-1.175.427a9.197 9.197 0 0 1 2.716 6.537 9.25 9.25 0 0 1 -.403 2.705 29.15 29.15 0 0 0 1.735.249c.246-.918.378-1.883.378-2.878 0-6.118-4.958-11.078-11.074-11.078z" fill="#ffe15a"/><path d="m37.007 20.672c-.24.183-.407.415-.542.683a8.358 8.358 0 0 1 -5.964 14.214 8.358 8.358 0 0 1 -8.357-8.36 8.358 8.358 0 0 1 12.573-7.217c.326-.144.57-.316.764-.545a9.173 9.173 0 0 0 -4.98-1.463 9.172 9.172 0 0 0 -4.675 1.275 9.22 9.22 0 0 0 -4.546 7.95c0 5.095 4.128 9.225 9.221 9.225 4.152 0 7.663-2.746 8.818-6.52a9.226 9.226 0 0 0 .404-2.705 9.198 9.198 0 0 0 -2.716-6.537z" fill="#f59f40"/><path d="m37.956 27.075a7.24 7.24 0 0 1 -.246 1.874 21.97 21.97 0 0 1 -.683-.09 16.645 16.645 0 0 1 -3.002-.727l-.564.55.6 3.503-.465-.245.012.071-2.752-1.448-3.083 1.622.077-.453-.53.279.6-3.503-2.544-2.48 3.516-.51.323-.656a9.128 9.128 0 0 1 -.99-1.657c-.293-.636-.449-1.297-.539-1.988-.027-.214-.052-.428-.08-.641a7.183 7.183 0 0 1 3.137-.717c2.092 0 3.975.892 5.293 2.315-.352-1.38-1.035-1.663-2.062-1.93.289-.079.531-.16.741-.253a8.358 8.358 0 0 0 -12.572 7.218 8.358 8.358 0 0 0 8.357 8.36 8.358 8.358 0 0 0 5.964-14.214c-.134.266-.238.57-.354.9a7.19 7.19 0 0 1 1.846 4.82z" fill="#fece44"/><path d="m30.743 19.859a7.182 7.182 0 0 0 -3.137.716c.028.214.052.427.08.641.09.692.245 1.353.539 1.989.264.572.598 1.138.99 1.657l1.249-2.532.27.546.183-.372 1.515 3.07 3.119.454-.096.093.55.08-1.98 1.93c.975.34 1.99.576 3.001.728.227.034.455.063.684.09.16-.598.246-1.227.246-1.875a7.19 7.19 0 0 0 -1.846-4.82l-.033.093a5.677 5.677 0 0 0 -.041-.174 7.192 7.192 0 0 0 -5.293-2.315zm3.231 3.792c-.169-.765-.517-.913-1.051-1.052.668-.182.863-.392 1.051-1.052.153.535.345.844 1.052 1.052-.752.099-.86.507-1.052 1.052z" fill="#ffe15a"/><path d="m27.85 31.733-.077.453 3.082-1.622-.391-.205zm4.582-6.157-1.515-3.071-.184.373 1.303 2.64zm3.024.545-2.448 2.387.589 3.43.465.246-.6-3.503.564-.55 1.98-1.93z" fill="#f59f40"/><path d="m33.008 28.51 2.448-2.388.096-.093-3.119-.454-.396-.057-1.303-2.64-.27-.547-1.248 2.532-.323.655-3.516.51 2.544 2.481-.6 3.503.53-.28 2.614-1.374.392.206 2.752 1.448-.012-.072-.588-3.43zm-5.04 2.615.497-2.9-2.106-2.054 2.911-.423 1.046-2.119c-.331 2.72.69 5.677 2.828 7.317l.03.179-2.602-1.37z" fill="#ffe733"/><path d="m33.175 31.125-.03-.18c-2.139-1.64-3.16-4.596-2.83-7.316l-1.045 2.119-2.91.423 2.105 2.054-.497 2.9 2.604-1.37z" fill="#fff158"/><path d="m34.715 19.991c-.21.092-.452.175-.74.253 1.026.267 1.71.55 2.06 1.93.015.056.03.114.042.174l.033-.093c.116-.33.22-.634.354-.9a1.9 1.9 0 0 1 .541-.684c.274-.21.644-.357 1.175-.427-1.413-.416-1.798-1.035-2.103-2.103-.168.59-.34 1-.598 1.305-.194.23-.437.4-.764.545zm-.74 1.556c-.188.66-.383.87-1.052 1.052.535.139.883.286 1.052 1.052.193-.545.3-.953 1.051-1.052-.706-.209-.899-.518-1.051-1.052z" fill="#fff"/></g></svg>