<svg fill="none" viewBox="0 0 162 24" xmlns="http://www.w3.org/2000/svg"><path d="m26.284 17.872v-13.87h2.715v4.832c.515-.68 1.592-1.26 3.064-1.26 3.194 0 5.062 2.365 5.062 5.264s-1.868 5.264-5.062 5.264c-1.426 0-2.641-.663-3.064-1.233v1.012h-2.715v-.01zm5.374-2.2c1.684 0 2.77-1.242 2.77-2.843 0-1.648-1.03-2.863-2.77-2.863-1.702 0-2.77 1.197-2.77 2.863 0 1.757 1.068 2.843 2.77 2.843zm6.405-1.886v-5.964h2.77v5.964c0 1.537.92 2.015 1.96 2.015.774 0 1.998-.46 1.924-2.641v-5.338h2.752v10.05h-2.752v-.865c-.662.68-1.629 1.086-2.696 1.086-2.9 0-3.958-1.712-3.958-4.307zm12.305-7.068c-.847 0-1.537-.663-1.537-1.482 0-.81.7-1.463 1.537-1.463.828 0 1.5.663 1.5 1.463a1.49 1.49 0 0 1 -1.5 1.482zm-1.38 1.086h2.751v10.068h-2.752v-10.068zm4.196-3.801h2.752v13.86h-2.752zm11.743 12.857c-.423.57-1.629 1.233-3.065 1.233-3.193 0-5.061-2.366-5.061-5.264 0-2.9 1.868-5.265 5.061-5.265 1.464 0 2.55.59 3.065 1.261v-4.822h2.715v13.86h-2.715zm-2.66-6.894c-1.739 0-2.77 1.215-2.77 2.863 0 1.592 1.086 2.843 2.77 2.843 1.703 0 2.77-1.086 2.77-2.843 0-1.666-1.067-2.863-2.77-2.863zm27.545 1.943v5.963h-2.77v-5.962c0-1.556-.902-2.034-1.96-2.034-.755 0-1.905.46-1.924 2.383v5.614h-2.77v-5.963c0-1.556-.92-2.034-1.942-2.034-.846 0-1.942.46-1.942 2.66l-.018 5.337h-2.733v-10.087h2.724v.92c.7-.626 1.831-1.104 2.66-1.104 1.536 0 2.549.515 3.248 1.37.755-.846 1.887-1.37 3.249-1.37 2.89 0 4.178 1.684 4.178 4.307zm2.816 9.736 1.74-4.141-4.326-9.682h3.175l2.55 6.415 2.346-6.415h3.175l-5.632 13.823zm12.065-13.822h2.917l1.685 4.472 2.438-5.024 2.476 5.043 1.749-4.491h2.898l-4.325 10.473-2.788-5.356-2.752 5.356zm13.942 5.043c0-4.142 3.599-5.246 5.485-5.246 2.587 0 5.173 1.758 5.265 5.006 0 .774-.056 1.261-.056 1.261h-7.96c.331 1.648 2.199 1.832 2.751 1.832 1.519 0 2.274-.829 2.587-1.178l2.125 1.233c-.405.552-1.757 2.347-4.712 2.347-1.969.009-5.485-1.114-5.485-5.255zm2.807-.92h5.044c-.111-.92-1.013-1.924-2.384-1.924-1.583 0-2.549.902-2.66 1.923zm16.52 4.914c-.423.57-1.629 1.233-3.065 1.233-3.193 0-5.061-2.365-5.061-5.264s1.868-5.264 5.061-5.264c1.464 0 2.55.589 3.065 1.26v-1.04h2.715v10.087h-2.715zm-2.66-6.893c-1.739 0-2.77 1.215-2.77 2.862 0 1.592 1.086 2.844 2.77 2.844 1.703 0 2.77-1.086 2.77-2.844 0-1.666-1.067-2.862-2.77-2.862zm6.82-5.964h2.751v13.86h-2.751zm7.482 10.271c0 .552.018 1.5 1.242 1.5.313 0 .534-.019.699-.037v2.31a12.63 12.63 0 0 1 -1.233.073c-2.126 0-3.433-.386-3.433-2.512v-5.595h-1.233v-2.393h1.233v-2.697h2.715v2.697h2.016v2.402h-2.016v4.252zm12.267-2.365v5.963h-2.788v-5.962c0-1.556-.902-2.034-1.961-2.034-.754 0-1.978.46-1.923 2.66v5.337h-2.733v-13.888h2.733v4.693c.681-.68 1.794-1.086 2.696-1.086 2.918.01 3.976 1.694 3.976 4.317z" fill="#111"/><g fill="#f1863e"><path clip-rule="evenodd" d="m.939 20.532h18.571c.56 0 1.021-.46 1.021-1.022v-13.326s-.037-.552-.598-.763c-.562-.212-1.059.11-1.27.33-.212.231-3.93 5.237-3.93 5.237s-.303.553-1.077.442c0 0-.671-.046-.635-.7.037-.653-.874-1.159-1.537-.828 0 0-.276.139-.588.562-.994 1.334-2.007 2.669-3.01 3.994-.442.589-.856 1.417-1.712 1.38a1.039 1.039 0 0 1 -.58-.211c-.22-.175-.211-.34-.239-.599-.036-.395-.34-.69-.717-.763-.774-.148-1.363.708-1.363.708l-3.137 4.215s-.331.433.055.985c-.009 0 .249.331.746.359zm16.308-18.719 3.009-1.785c.12-.074.276.018.276.156v3.654a.18.18 0 0 1 -.276.156l-3.01-1.859c-.12-.083-.11-.258 0-.322z" fill-rule="evenodd"/><path d="m12.047 8.09a1.693 1.693 0 1 0 0-3.387 1.693 1.693 0 0 0 0 3.386zm-7.592 4.582a1.703 1.703 0 1 0 0-3.405 1.703 1.703 0 0 0 0 3.405z"/></g></svg>