<svg fill="none" xmlns="http://www.w3.org/2000/svg" viewBox="0 0 48 48"><rect width="48" height="48" rx="24" fill="#9898AD" fill-opacity=".07"/><g clip-path="url(#settings-icon__a)"><path fill-rule="evenodd" clip-rule="evenodd" d="M21.655 14a.833.833 0 0 0-.789.564l-1.033 3.029-2.67-.652a.833.833 0 0 0-.922.397l-2.132 3.75a.833.833 0 0 0 .142 1.008L16.199 24l-1.948 1.904a.833.833 0 0 0-.142 1.008l2.132 3.75c.184.324.56.486.922.398l2.588-.633.665 2.924c.086.38.424.649.813.649h4.69a.833.833 0 0 0 .788-.564l1.04-3.047 3.111.675a.833.833 0 0 0 .879-.365l2.132-3.333a.833.833 0 0 0-.12-1.045l-1.993-1.949 2.037-2.323a.833.833 0 0 0 .098-.96l-2.132-3.75a.833.833 0 0 0-.9-.403l-3.112.675-1.04-3.047A.833.833 0 0 0 25.92 14h-4.264Zm-.49 4.852 1.086-3.185h3.071l1.087 3.185a.834.834 0 0 0 .966.546l3.238-.704 1.536 2.702-2.167 2.471a.833.833 0 0 0 .044 1.146l2.073 2.026-1.454 2.274-3.27-.71a.833.833 0 0 0-.966.545l-1.087 3.185h-3.428l-.705-3.101a.833.833 0 0 0-1.01-.625l-2.8.684-1.504-2.644 2.099-2.051a.833.833 0 0 0 0-1.192l-2.099-2.05 1.504-2.645 2.8.684a.833.833 0 0 0 .986-.54Zm2.835.981a4.167 4.167 0 1 0 0 8.334 4.167 4.167 0 0 0 0-8.334ZM21.5 24a2.5 2.5 0 1 1 5 0 2.5 2.5 0 0 1-5 0Z" fill="#9898AD"/></g><defs><clipPath id="settings-icon__a"><path fill="#fff" transform="translate(14 14)" d="M0 0h20v20H0z"/></clipPath></defs></svg>